<svg id="Komponente_17_135" data-name="Komponente 17 – 135" xmlns="http://www.w3.org/2000/svg" xmlns:xlink="http://www.w3.org/1999/xlink" width="60.113" height="59.096" viewBox="0 0 60.113 59.096">
  <defs>
    <clipPath id="clip-path">
      <rect id="Rechteck_72" data-name="Rechteck 72" width="60.113" height="59.096" fill="none"/>
    </clipPath>
  </defs>
  <g id="Blume_-_nicht_ausgewählt" data-name="Blume - nicht ausgewählt" clip-path="url(#clip-path)">
    <path id="Pfad_62" data-name="Pfad 62" d="M59.876,25.582a5.026,5.026,0,0,1-.173-.76,1.293,1.293,0,0,1,.126-.638,3.452,3.452,0,0,0,.014-2.538,3.787,3.787,0,0,0-1.472-2.029c-.088-.071-.173-.136-.248-.2a1.427,1.427,0,0,1-.5-.807,5.649,5.649,0,0,0-.315-.79,3.285,3.285,0,0,0-1.618-1.594,2.715,2.715,0,0,0-.726-.183,1.928,1.928,0,0,1-.312-.058c-.109-.064-.17-.21-.282-.529a3.427,3.427,0,0,0-.349-.763,3.562,3.562,0,0,0-1.533-1.272,5.364,5.364,0,0,0-2.239-.451,7.509,7.509,0,0,0-1.686.2,17.347,17.347,0,0,0-7.032,3.82,35.606,35.606,0,0,0-3.44,3.27,35.556,35.556,0,0,0,2.042-4.285A17.338,17.338,0,0,0,41.6,8.1c-.159-1.781-.994-3.932-2.843-4.624a3.071,3.071,0,0,0-1.15-.166c-.373,0-.475-.014-.6-.122a2.478,2.478,0,0,1-.38-.519,2.808,2.808,0,0,0-1.065-1.126A3.916,3.916,0,0,0,33.8,1.184a4.935,4.935,0,0,1-.773-.068A1.321,1.321,0,0,1,32.458.8,3.45,3.45,0,0,0,30.046,0a3.822,3.822,0,0,0-2.381.773C27.57.835,27.482.9,27.4.946a1.429,1.429,0,0,1-.919.224,5.541,5.541,0,0,0-.848.054,3.279,3.279,0,0,0-2.018,1.048,2.767,2.767,0,0,0-.4.631,2.082,2.082,0,0,1-.153.278c-.095.085-.254.1-.59.105a3.438,3.438,0,0,0-.835.1,3.575,3.575,0,0,0-1.683,1.062A6.214,6.214,0,0,0,18.5,8.1a17.338,17.338,0,0,0,1.462,7.867A35.925,35.925,0,0,0,22,20.246a35.826,35.826,0,0,0-3.437-3.26,17.347,17.347,0,0,0-7.032-3.82,7.631,7.631,0,0,0-1.7-.193,4.369,4.369,0,0,0-3.579,1.469,3.091,3.091,0,0,0-.516,1.045c-.115.353-.156.444-.3.529a2.577,2.577,0,0,1-.611.2,2.8,2.8,0,0,0-1.4.662,3.955,3.955,0,0,0-.889,1.564,4.83,4.83,0,0,1-.305.716,1.334,1.334,0,0,1-.478.444,3.443,3.443,0,0,0-1.5,2.046,3.8,3.8,0,0,0,0,2.5c.031.109.061.214.081.309a1.419,1.419,0,0,1-.071.943,5.722,5.722,0,0,0-.21.824,3.294,3.294,0,0,0,.373,2.242,2.647,2.647,0,0,0,.478.573,2.014,2.014,0,0,1,.217.231c.051.119.014.271-.081.6a3.347,3.347,0,0,0-.166.821,3.547,3.547,0,0,0,.492,1.927,6.225,6.225,0,0,0,3.026,2.514,15.508,15.508,0,0,0,6.188,1.1c.56,0,1.13-.017,1.747-.054a35.8,35.8,0,0,0,4.705-.617,35.054,35.054,0,0,0-4.169,2.263,17.344,17.344,0,0,0-5.811,5.506c-.916,1.537-1.5,3.762-.414,5.414a3.083,3.083,0,0,0,.831.811c.3.221.377.288.41.448a2.532,2.532,0,0,1,0,.645,2.779,2.779,0,0,0,.2,1.537A3.885,3.885,0,0,0,9.3,53.505a4.659,4.659,0,0,1,.583.512,1.278,1.278,0,0,1,.278.59,3.416,3.416,0,0,0,1.479,2.063,3.819,3.819,0,0,0,2.381.777c.115,0,.221.007.319.014a1.455,1.455,0,0,1,.875.363,6.217,6.217,0,0,0,.719.455,3.373,3.373,0,0,0,1.591.407,3.308,3.308,0,0,0,.658-.068,2.682,2.682,0,0,0,.692-.282,2.332,2.332,0,0,1,.285-.132.094.094,0,0,1,.031,0,1.183,1.183,0,0,1,.512.265,3.513,3.513,0,0,0,.729.41,3.313,3.313,0,0,0,1.181.21A4.178,4.178,0,0,0,22.417,59a6.227,6.227,0,0,0,3.325-2.1,17.364,17.364,0,0,0,3.443-7.226,35.28,35.28,0,0,0,.865-4.668,35.852,35.852,0,0,0,.862,4.668A17.364,17.364,0,0,0,34.355,56.9,5.789,5.789,0,0,0,38.449,59.1a3.365,3.365,0,0,0,.923-.126,3.108,3.108,0,0,0,1.031-.539c.292-.214.39-.268.553-.251a2.422,2.422,0,0,1,.614.193,3.113,3.113,0,0,0,1.225.309,2.121,2.121,0,0,0,.3-.02,3.951,3.951,0,0,0,1.639-.743,5.265,5.265,0,0,1,.668-.4,1.023,1.023,0,0,1,.455-.081c.064,0,.129,0,.193,0,.081,0,.163.007.248.007a3.449,3.449,0,0,0,2.171-.777,3.827,3.827,0,0,0,1.472-2.029q.056-.158.112-.3a1.452,1.452,0,0,1,.614-.723,5.558,5.558,0,0,0,.658-.543,3.3,3.3,0,0,0,1.014-2.032,2.639,2.639,0,0,0-.051-.746,2.546,2.546,0,0,1-.041-.312c.027-.126.149-.231.417-.434a3.385,3.385,0,0,0,.617-.57,3.552,3.552,0,0,0,.733-1.849,6.208,6.208,0,0,0-.967-3.813,17.362,17.362,0,0,0-5.808-5.506,35.835,35.835,0,0,0-4.186-2.27,35.629,35.629,0,0,0,4.719.624c.607.037,1.2.054,1.75.054a15.491,15.491,0,0,0,6.184-1.1c1.645-.7,3.43-2.154,3.518-4.132a3.028,3.028,0,0,0-.2-1.147c-.115-.353-.136-.451-.068-.6a2.512,2.512,0,0,1,.377-.522,2.813,2.813,0,0,0,.743-1.357,3.972,3.972,0,0,0-.2-1.788M21.369,15.419a15.929,15.929,0,0,1-1.36-7.178A4.862,4.862,0,0,1,21.07,5.475a2.052,2.052,0,0,1,.963-.628,2.357,2.357,0,0,1,.475-.044,2.242,2.242,0,0,0,1.564-.492,2.271,2.271,0,0,0,.5-.733,1.787,1.787,0,0,1,.166-.3,1.817,1.817,0,0,1,1.106-.56,4.483,4.483,0,0,1,.648-.041,2.861,2.861,0,0,0,1.693-.441c.115-.068.224-.142.329-.214a2.317,2.317,0,0,1,1.537-.516A1.966,1.966,0,0,1,31.532,2a2.714,2.714,0,0,0,1.187.6,5.8,5.8,0,0,0,1.025.1,2.679,2.679,0,0,1,1.119.193,1.6,1.6,0,0,1,.475.58A3.669,3.669,0,0,0,36,4.322a2.181,2.181,0,0,0,1.6.505,1.767,1.767,0,0,1,.621.071c1.194.448,1.754,2.08,1.869,3.342a15.938,15.938,0,0,1-1.364,7.178,41.528,41.528,0,0,1-4.756,8.525c-.343.492-.7.98-1.055,1.459-.1-.051-.2-.095-.309-.139a2.182,2.182,0,0,0-.207-.081c-.081-.034-.163-.064-.248-.092-.068-.024-.136-.047-.207-.068-.054-.017-.109-.031-.166-.047s-.115-.031-.173-.044-.112-.027-.166-.037c-.095-.02-.187-.041-.282-.054-.037-.007-.075-.014-.115-.017l0,0L33.293,17.4a.757.757,0,1,0-1.449-.441l-1.795,5.93-1.795-5.93A.759.759,0,0,0,26.8,17.4l2.246,7.423,0,0a.861.861,0,0,0-.1.014,2.561,2.561,0,0,0-.271.054c-.071.014-.146.031-.217.047l-.115.031-.221.061c-.149.044-.292.095-.434.153-.068.024-.139.051-.207.081-.1.044-.207.088-.309.139-.356-.478-.709-.967-1.055-1.459a41.528,41.528,0,0,1-4.756-8.525M12.236,34.66c-.587.037-1.13.051-1.655.051a14.026,14.026,0,0,1-5.591-.974,4.806,4.806,0,0,1-2.3-1.859,2.075,2.075,0,0,1-.3-1.113,2.265,2.265,0,0,1,.105-.465,2.23,2.23,0,0,0,.014-1.639,2.258,2.258,0,0,0-.543-.7,1.943,1.943,0,0,1-.227-.248,1.831,1.831,0,0,1-.19-1.225,4.426,4.426,0,0,1,.163-.628,2.907,2.907,0,0,0,.1-1.747c-.031-.132-.064-.258-.1-.38A2.311,2.311,0,0,1,1.7,22.115a1.966,1.966,0,0,1,.919-1.262,2.726,2.726,0,0,0,.936-.946,6.1,6.1,0,0,0,.414-.943,2.609,2.609,0,0,1,.529-1,1.578,1.578,0,0,1,.7-.271A3.746,3.746,0,0,0,6.2,17.325a2.188,2.188,0,0,0,.977-1.371,1.717,1.717,0,0,1,.258-.567,3.015,3.015,0,0,1,2.4-.9,6.247,6.247,0,0,1,1.36.156,15.928,15.928,0,0,1,6.4,3.515,41.529,41.529,0,0,1,6.642,7.158c.36.482.716.967,1.058,1.452a1.52,1.52,0,0,0-.122.136,6.169,6.169,0,0,0-.4.489c-.058.075-.112.153-.163.231a.384.384,0,0,1-.034.044c-.047.071-.092.146-.139.221a.5.5,0,0,0-.027.044c-.051.085-.1.173-.149.261-.034.058-.064.119-.092.176L17.8,23.933a.758.758,0,1,0-.865,1.245l5.082,3.538-6.191-.122a.758.758,0,0,0-.031,1.516l7.752.159c0,.031-.01.061-.014.095-.017.105-.031.214-.041.322-.02.21-.031.424-.031.638,0,.112,0,.221.01.332a5.246,5.246,0,0,0,.051.567c-.563.19-1.136.377-1.71.55a41.428,41.428,0,0,1-9.58,1.886M28.883,39.6a41.582,41.582,0,0,1-1.164,9.7A15.939,15.939,0,0,1,24.6,55.907a4.749,4.749,0,0,1-2.483,1.611,2.722,2.722,0,0,1-.509.051,1.842,1.842,0,0,1-.641-.109,2.268,2.268,0,0,1-.41-.248,2.355,2.355,0,0,0-1.371-.526,1.655,1.655,0,0,0-.183.007,2.286,2.286,0,0,0-.835.3,1.983,1.983,0,0,1-.309.139,1.79,1.79,0,0,1-1.221-.2,4.682,4.682,0,0,1-.55-.349,2.881,2.881,0,0,0-1.625-.638c-.139-.01-.268-.017-.394-.02a2.327,2.327,0,0,1-1.547-.485,1.989,1.989,0,0,1-.916-1.265A2.751,2.751,0,0,0,11,53a6.135,6.135,0,0,0-.77-.682,2.642,2.642,0,0,1-.794-.814,1.6,1.6,0,0,1-.041-.746,3.662,3.662,0,0,0-.034-1.079,2.183,2.183,0,0,0-1-1.35A1.871,1.871,0,0,1,7.9,47.9c-.7-1.069-.193-2.714.455-3.8a15.882,15.882,0,0,1,5.323-5,41.323,41.323,0,0,1,8.858-4.1q.855-.3,1.71-.56a.119.119,0,0,0,.017.027,6.24,6.24,0,0,0,.329.543c.037.054.075.109.112.159s.081.115.126.17c.024.031.047.061.075.092.047.061.095.119.146.176.092.112.193.221.3.326a.194.194,0,0,0,.037.037c.014.01.027.024.041.034l0,0-6.184,4.688a.758.758,0,0,0,.916,1.208l4.936-3.742-2.032,5.852a.753.753,0,0,0,.468.963.694.694,0,0,0,.248.044.76.76,0,0,0,.716-.509l2.544-7.331,0,0,.095.051c.081.041.166.081.251.119a6.941,6.941,0,0,0,.78.292c.119.034.237.068.36.095s.244.058.366.078c.01.6.007,1.2,0,1.8m1.981-3.277-.085.014a.2.2,0,0,1-.044.007q-.137.02-.275.031a.24.24,0,0,1-.047,0c-.119.01-.241.014-.363.014s-.244,0-.366-.014a.378.378,0,0,1-.058-.007c-.078,0-.159-.014-.237-.024l-.078-.01a4.919,4.919,0,0,1-1-.254s-.007,0-.007,0c-.105-.037-.207-.078-.309-.126a.12.12,0,0,1-.031-.014c-.1-.044-.2-.095-.3-.149-.081-.041-.163-.088-.241-.136-.034-.02-.068-.041-.1-.064a2.915,2.915,0,0,1-.248-.17,4.577,4.577,0,0,1-.522-.438.09.09,0,0,1-.02-.017,3.04,3.04,0,0,1-.231-.237s-.007-.007-.007-.01a3.39,3.39,0,0,1-.227-.268c-.061-.075-.119-.149-.173-.231a3.766,3.766,0,0,1-.251-.4,2.222,2.222,0,0,1-.109-.2c-.064-.129-.126-.258-.18-.394a4.919,4.919,0,0,1-.251-.8c-.01-.041-.02-.081-.027-.122s-.017-.092-.024-.139A.935.935,0,0,1,25.029,32a3.391,3.391,0,0,1-.037-.373c-.007-.1-.01-.2-.01-.3a5.233,5.233,0,0,1,.075-.868c.01-.068.024-.132.037-.2.027-.115.058-.234.092-.349.014-.047.027-.095.044-.142v-.007c.02-.064.044-.129.068-.193s.054-.142.085-.21.064-.149.1-.224a3.8,3.8,0,0,1,.234-.431,4.66,4.66,0,0,1,.271-.4q.071-.1.153-.193c.047-.061.1-.119.153-.176.037-.041.078-.085.119-.126s.071-.075.112-.112c.085-.081.17-.163.261-.237a4.95,4.95,0,0,1,1.092-.7,2.132,2.132,0,0,1,.2-.092c.1-.044.2-.085.309-.119.088-.031.176-.061.268-.085s.214-.058.322-.081.214-.044.322-.061c.044-.007.092-.01.139-.017q.107-.015.214-.02a.349.349,0,0,1,.058,0c.112-.01.224-.014.339-.014s.227,0,.343.014a.152.152,0,0,1,.037,0q.117.005.234.02c.044.007.092.01.136.017.109.017.214.037.319.058s.217.051.322.085a2.868,2.868,0,0,1,.275.088c.109.034.214.078.322.122.047.02.095.041.142.064.064.031.129.061.19.095.122.061.241.129.356.2a5,5,0,0,1,.726.553,2.014,2.014,0,0,1,.176.166,1.923,1.923,0,0,1,.163.17.026.026,0,0,0,.014.014c.051.058.1.115.153.176.1.122.193.244.282.373l.142.224c.041.068.081.139.119.21.058.105.109.21.159.319.027.058.054.119.078.18.044.112.088.221.126.332v0c0,.007,0,.014,0,.02a1.145,1.145,0,0,1,.044.142c.034.115.064.234.092.349.014.068.027.132.037.2a5.233,5.233,0,0,1,.075.868c0,.1,0,.2-.01.3-.007.126-.017.248-.034.37-.007.061-.017.122-.027.18-.007.041-.014.078-.02.115s-.02.1-.031.146a4.844,4.844,0,0,1-.265.831c-.047.112-.095.221-.149.326,0,.01-.01.02-.014.031-.037.068-.071.132-.109.2s-.075.126-.112.187l-.031.051-.132.193c-.047.068-.1.136-.149.2-.071.092-.149.183-.227.268s-.132.142-.2.214c-.034.034-.068.068-.105.1a2.391,2.391,0,0,1-.2.173c-.01.01-.02.017-.031.027-.078.068-.159.129-.244.19s-.187.132-.285.193c0,0-.007.007-.01,0l-.047.031c-.081.051-.166.1-.251.142a2.725,2.725,0,0,1-.315.156,2.925,2.925,0,0,1-.322.132,4.466,4.466,0,0,1-.678.2c-.081.02-.166.034-.251.047M46.422,39.1a15.9,15.9,0,0,1,5.319,5,4.879,4.879,0,0,1,.767,2.86,2.079,2.079,0,0,1-.41,1.075,2.162,2.162,0,0,1-.36.315,2.236,2.236,0,0,0-.974,1.32,2.311,2.311,0,0,0,.024.885A1.366,1.366,0,0,1,50.262,52a4.53,4.53,0,0,1-.5.41,2.885,2.885,0,0,0-1.109,1.354c-.054.126-.1.248-.142.366a2.328,2.328,0,0,1-.94,1.32,2.7,2.7,0,0,1-.757.41,1.626,1.626,0,0,1-.522.075c-.071,0-.139,0-.207-.007s-.156,0-.234,0a2.512,2.512,0,0,0-1.079.217,6.193,6.193,0,0,0-.889.522,2.681,2.681,0,0,1-1.018.5,1.657,1.657,0,0,1-.723-.19,3.674,3.674,0,0,0-1.035-.3c-.068-.007-.139-.01-.207-.01a2.256,2.256,0,0,0-1.387.543,1.794,1.794,0,0,1-.546.309,2.016,2.016,0,0,1-.519.068,4.461,4.461,0,0,1-2.955-1.672A15.9,15.9,0,0,1,32.38,49.3a41.388,41.388,0,0,1-1.167-9.7c-.01-.6-.01-1.2,0-1.8.122-.02.244-.047.366-.078s.241-.061.36-.095.234-.075.353-.119.227-.088.339-.132l0,0c.115-.051.227-.1.336-.156l.095-.051,0,0,2.544,7.331a.76.76,0,0,0,.716.509.726.726,0,0,0,.251-.044.754.754,0,0,0,.465-.963l-2.032-5.852L39.945,41.9a.758.758,0,0,0,.916-1.208L34.68,36a.723.723,0,0,0,.071-.075c.075-.078.146-.153.217-.234.027-.031.054-.061.078-.092.051-.058.1-.115.146-.176a.59.59,0,0,0,.075-.092c.044-.054.085-.112.126-.17s.075-.105.112-.159a5.5,5.5,0,0,0,.329-.543.119.119,0,0,0,.017-.027q.855.265,1.71.56a41.434,41.434,0,0,1,8.861,4.1M58.58,27.119a1.559,1.559,0,0,1-.4.628,3.642,3.642,0,0,0-.607.892,2.183,2.183,0,0,0,.014,1.683,1.707,1.707,0,0,1,.126.611c-.058,1.276-1.435,2.307-2.6,2.806a11.192,11.192,0,0,1-2.531.733,17.706,17.706,0,0,1-3.057.241c-.522,0-1.079-.017-1.659-.051a41.586,41.586,0,0,1-9.58-1.883c-.573-.176-1.147-.363-1.71-.553.01-.075.02-.149.027-.227.01-.109.02-.221.024-.332s.01-.227.01-.339c0-.214-.01-.427-.031-.638-.01-.109-.024-.217-.037-.322-.007-.034-.014-.064-.017-.095l7.755-.159a.76.76,0,0,0-.031-1.52l-6.195.126,5.085-3.538a.758.758,0,1,0-.868-1.242l-6.364,4.434h0a1.791,1.791,0,0,0-.092-.18c-.047-.088-.1-.176-.149-.261a.192.192,0,0,0-.027-.044c-.047-.075-.092-.149-.139-.221a.384.384,0,0,0-.034-.044c-.051-.078-.105-.156-.163-.231a6.169,6.169,0,0,0-.4-.489,1.52,1.52,0,0,0-.122-.136c.343-.485.7-.97,1.062-1.452A41.521,41.521,0,0,1,42.5,18.156a15.949,15.949,0,0,1,6.4-3.515,6.092,6.092,0,0,1,1.35-.156,3.874,3.874,0,0,1,1.608.312,2.116,2.116,0,0,1,.9.723,2.1,2.1,0,0,1,.187.441,1.939,1.939,0,0,0,1.8,1.581,2,2,0,0,1,.332.068,1.82,1.82,0,0,1,.872.879,4.092,4.092,0,0,1,.237.6,2.893,2.893,0,0,0,.943,1.472c.1.088.207.17.305.248a2.311,2.311,0,0,1,.963,1.3,1.973,1.973,0,0,1,0,1.561,2.719,2.719,0,0,0-.2,1.313A6.2,6.2,0,0,0,58.417,26a2.632,2.632,0,0,1,.163,1.123" transform="translate(0)" fill="#c095c3"/>
  </g>
</svg>
